<?xml version="1.0" encoding="UTF-8" standalone="no"?>
<!-- Created with Inkscape (http://www.inkscape.org/) -->

<svg
   width="100mm"
   height="42.524853mm"
   viewBox="0 0 100 42.524853"
   version="1.1"
   id="svg1"
   inkscape:version="1.4.2 (ebf0e940d0, 2025-05-08)"
   sodipodi:docname="footer_logo.svg"
   xmlns:inkscape="http://www.inkscape.org/namespaces/inkscape"
   xmlns:sodipodi="http://sodipodi.sourceforge.net/DTD/sodipodi-0.dtd"
   xmlns="http://www.w3.org/2000/svg"
   xmlns:svg="http://www.w3.org/2000/svg">
  <sodipodi:namedview
     id="namedview1"
     pagecolor="#ffffff"
     bordercolor="#000000"
     borderopacity="0.25"
     inkscape:showpageshadow="2"
     inkscape:pageopacity="0.0"
     inkscape:pagecheckerboard="0"
     inkscape:deskcolor="#d1d1d1"
     inkscape:document-units="mm"
     inkscape:zoom="2.3445892"
     inkscape:cx="221.57399"
     inkscape:cy="88.7149"
     inkscape:window-width="1920"
     inkscape:window-height="1048"
     inkscape:window-x="0"
     inkscape:window-y="0"
     inkscape:window-maximized="1"
     inkscape:current-layer="layer1" />
  <defs
     id="defs1">
    <clipPath
       id="clip0_67_87">
      <rect
         width="134"
         height="57"
         fill="#ffffff"
         id="rect12"
         x="0"
         y="0" />
    </clipPath>
  </defs>
  <g
     inkscape:label="Capa 1"
     inkscape:groupmode="layer"
     id="layer1"
     transform="translate(-6.0729163,-28.342251)">
    <g
       clip-path="url(#clip0_67_87)"
       id="g12"
       transform="matrix(0.74626866,0,0,0.74626866,6.0729163,28.342251)"
       style="fill:#ffffff;fill-opacity:1">
      <path
         d="m 25.6843,29.9398 c 0.0014,1.4787 -0.4955,2.9145 -1.4099,4.0747 -0.9145,1.1602 -2.193,1.9768 -3.6283,2.3173 -1.4352,0.3406 -2.9431,0.1852 -4.2793,-0.441 -1.3362,-0.6262 -2.4222,-1.6864 -3.0822,-3.0088 -0.6599,-1.3224 -0.855,-2.8295 -0.5537,-4.277 0.3013,-1.4476 1.0814,-2.7506 2.2138,-3.698 1.1324,-0.9474 2.5508,-1.4836 4.0253,-1.5217 1.4744,-0.0381 2.9184,0.4241 4.098,1.3118 0.8116,0.6108 1.4705,1.4023 1.9246,2.3122 0.454,0.9099 0.6908,1.9131 0.6917,2.9305 z"
         fill="#003f6e"
         id="path1"
         style="fill:#ffffff;fill-opacity:1" />
      <path
         d="m 38.9489,36.379 c 0,2.8997 -1.2332,5.2494 -2.7625,5.2494 -1.5292,0 -2.7626,-2.3497 -2.7626,-5.2494 0,-2.8996 1.2367,-5.2494 2.7626,-5.2494 1.5259,0 2.7625,2.3531 2.7625,5.2494 z"
         fill="#003f6e"
         id="path2"
         style="fill:#ffffff;fill-opacity:1" />
      <path
         d="M 55.5377,25.7803 45.2752,31.343 52.6987,23.3739 50.1089,23.7506 54.7232,18.5112 53.1807,4.60613 45.744,13.4351 49.7765,3.29295 47.5192,4.58613 49.1814,0 42.865,1.03988 40.0859,6.97585 43.2174,8.22239 33.2243,20.0877 37.2369,9.94551 34.9696,11.2454 38.4104,1.77646 5.96085,7.1525 7.76269,15.6015 2.56997,10.7754 1.61587,16.2681 -0.00976562,14.6016 6.38971,56.9833 H 58.9817 Z m -5.319,14.9983 c -0.0397,0.4051 -0.2287,0.7809 -0.5299,1.0539 -0.3012,0.273 -0.6931,0.4237 -1.0991,0.4226 h -0.1164 c -0.2758,1.6674 -1.0311,3.2179 -2.1732,4.4612 -1.142,1.2433 -2.6213,2.1254 -4.2562,2.5379 -0.6935,0.1815 -1.4075,0.2722 -2.1242,0.27 L 28.9491,49.4809 C 26.0621,49.4774 23.2575,48.5162 20.9724,46.7474 18.6873,44.9785 17.0502,42.5013 16.3164,39.702 14.315,39.5014 12.4011,38.7781 10.7656,37.6043 9.13011,36.4305 7.83022,34.8473 6.99558,33.0126 6.16095,31.1779 5.82076,29.1558 6.00898,27.1482 c 0.18821,-2.0077 0.89824,-3.9308 2.05924,-5.5775 1.16101,-1.6466 2.73238,-2.9593 4.55738,-3.807 1.825,-0.8477 3.8398,-1.2008 5.8434,-1.024 2.0036,0.1767 3.926,0.8771 5.5753,2.0312 1.6494,1.1542 2.968,2.7218 3.8244,4.5464 0.359,-0.03 0.7214,-0.0467 1.0937,-0.0467 2.7493,9e-4 5.4283,0.8711 7.6558,2.4868 2.2274,1.6156 3.8899,3.8944 4.7509,6.5122 0.1565,0.4637 0.2843,0.9368 0.3823,1.4165 0,0.06 0.0266,0.1233 0.0365,0.1866 0.2954,1.3971 0.9286,2.7001 1.8439,3.7944 0.9153,1.0943 2.0847,1.9465 3.4054,2.4815 0.0919,-0.3045 0.2699,-0.5758 0.5124,-0.781 0.2424,-0.2053 0.5391,-0.3357 0.8539,-0.3755 h 0.1995 c 0.215,-9e-4 0.4281,0.0409 0.6269,0.123 0.1989,0.0821 0.3795,0.2029 0.5316,0.3553 0.152,0.1525 0.2725,0.3336 0.3544,0.533 0.0819,0.1993 0.1235,0.4129 0.1226,0.6285 0,0.0467 -0.0065,0.0934 -0.0065,0.15 z"
         fill="#003f6e"
         id="path3"
         style="fill:#ffffff;fill-opacity:1" />
      <path
         d="M 69.0578,9.03561 H 79.759 c 2.9654,0 5.2393,0.79434 6.8217,2.38309 1.3298,1.3331 1.9947,3.1207 1.9947,5.3627 v 0.0666 c 0,1.8998 -0.4632,3.4485 -1.3896,4.6462 -0.9362,1.2032 -2.1939,2.1152 -3.6269,2.6296 l 5.7179,8.3824 H 83.2563 L 74.194,20.4376 V 32.5062 H 69.0578 Z M 79.4233,20.4376 c 1.2699,0 2.2473,-0.3033 2.9255,-0.9066 0.3376,-0.3014 0.6042,-0.6742 0.7807,-1.0915 0.1765,-0.4173 0.2584,-0.8686 0.2399,-1.3215 v -0.0667 c 0,-1.1198 -0.3557,-1.9564 -1.0705,-2.5163 -0.7147,-0.56 -1.7055,-0.8366 -2.9754,-0.8366 h -5.1162 v 6.7392 z"
         fill="#2e2d2c"
         id="path4"
         style="fill:#ffffff;fill-opacity:1" />
      <path
         d="m 102.229,32.9095 c -1.642,0.015 -3.2696,-0.3048 -4.7842,-0.9399 -1.4261,-0.59 -2.7197,-1.4605 -3.8046,-2.5602 -1.0849,-1.0997 -1.939,-2.4062 -2.5117,-3.8424 -0.6073,-1.5019 -0.9145,-3.1088 -0.9043,-4.7294 v -0.0667 c -0.0247,-3.1933 1.2012,-6.2689 3.4142,-8.5657 1.0918,-1.1232 2.399,-2.0132 3.843,-2.61631 1.5687,-0.65037 3.2526,-0.97466 4.9496,-0.95322 1.004,-0.00896 2.006,0.08034 2.992,0.26663 0.842,0.16228 1.665,0.40906 2.457,0.73659 0.72,0.30458 1.404,0.68681 2.041,1.13991 0.618,0.4447 1.2,0.9385 1.739,1.4764 l -3.278,3.7896 c -0.837,-0.774 -1.777,-1.4289 -2.792,-1.9464 -0.996,-0.4804 -2.09,-0.7212 -3.195,-0.7033 -0.919,-0.0103 -1.83,0.1758 -2.6724,0.5459 -0.8421,0.3701 -1.5958,0.9157 -2.2112,1.6005 -0.6085,0.6833 -1.0842,1.4746 -1.4029,2.3331 -0.3393,0.9054 -0.5094,1.8658 -0.502,2.833 v 0.0666 c -0.0069,0.9726 0.1633,1.9383 0.502,2.8497 0.3166,0.8558 0.7863,1.6465 1.3863,2.3331 0.6125,0.695 1.3673,1.2495 2.2129,1.6257 0.8453,0.3761 1.7623,0.5651 2.6873,0.554 1.175,0.0381 2.34,-0.2149 3.394,-0.7366 1.002,-0.5438 1.93,-1.2161 2.759,-1.9997 l 3.278,3.3329 c -0.58,0.6279 -1.205,1.2117 -1.871,1.7465 -0.657,0.5218 -1.37,0.9689 -2.125,1.3332 -0.805,0.3808 -1.653,0.6617 -2.526,0.8365 -1.014,0.1911 -2.044,0.2782 -3.075,0.26 z"
         fill="#2e2d2c"
         id="path5"
         style="fill:#ffffff;fill-opacity:1" />
      <path
         d="m 69.29,50.994 0.7182,-0.9998 c 0.9385,0.751 2.0941,1.1778 3.2944,1.2165 1.1403,0 1.968,-0.5899 1.968,-1.5132 v -0.0366 c 0,-0.9599 -1.1203,-1.3332 -2.3736,-1.6665 -1.4893,-0.4233 -3.1482,-0.9399 -3.1482,-2.693 v -0.0367 c 0,-1.6431 1.3631,-2.7297 3.2413,-2.7297 1.2169,0.0218 2.4032,0.3856 3.4241,1.0499 l -0.6449,1.0699 c -0.8344,-0.565 -1.8097,-0.8847 -2.8158,-0.9232 -1.1236,0 -1.8417,0.5899 -1.8417,1.3831 v 0.04 c 0,0.9033 1.1802,1.2532 2.4501,1.6398 1.4727,0.4433 3.0551,0.9999 3.0551,2.7331 v 0.0366 c 0,1.8098 -1.4926,2.8597 -3.3875,2.8597 C 71.7953,52.3941 70.4109,51.8916 69.29,50.994 Z"
         fill="#2e2d2c"
         id="path6"
         style="fill:#ffffff;fill-opacity:1" />
      <path
         d="m 81.4079,49.6842 v -5.756 H 80.0782 V 42.675 h 1.3297 v -2.8797 h 1.4162 v 2.8797 h 3.0186 v 1.2532 h -3.0186 v 5.5727 c 0,1.1598 0.645,1.5865 1.6024,1.5865 0.4799,0.0014 0.9531,-0.1129 1.3796,-0.3333 v 1.2198 c -0.5282,0.2758 -1.1165,0.4156 -1.712,0.4066 -1.5292,0 -2.6862,-0.7599 -2.6862,-2.6963 z"
         fill="#2e2d2c"
         id="path7"
         style="fill:#ffffff;fill-opacity:1" />
      <path
         d="M 90.0447,48.5976 V 42.675 h 1.4162 v 5.5727 c 0,1.7698 0.9575,2.8763 2.633,2.8763 1.619,0 2.8523,-1.1998 2.8523,-2.9996 V 42.675 h 1.3996 v 9.5389 h -1.3996 v -1.6665 c -0.3224,0.5785 -0.7962,1.0577 -1.3703,1.3861 -0.5742,0.3283 -1.2268,0.4933 -1.8875,0.477 -2.3005,0.0067 -3.6437,-1.5465 -3.6437,-3.8129 z"
         fill="#2e2d2c"
         id="path8"
         style="fill:#ffffff;fill-opacity:1" />
      <path
         d="m 102.824,47.4812 v -0.0367 c 0,-3.1196 2.264,-4.9628 4.545,-4.9628 1.768,0 2.909,0.9566 3.656,2.0265 v -5.766 h 1.417 v 13.4717 h -1.417 v -1.9197 c -0.774,1.1432 -1.898,2.123 -3.656,2.123 -2.281,0 -4.545,-1.8097 -4.545,-4.936 z m 8.245,-0.02 v -0.0367 c 0.016,-0.4678 -0.06,-0.9342 -0.224,-1.3723 -0.165,-0.4381 -0.414,-0.8391 -0.734,-1.18 -0.32,-0.3409 -0.704,-0.6149 -1.13,-0.8061 -0.427,-0.1912 -0.886,-0.2958 -1.353,-0.3078 -1.842,0 -3.351,1.3631 -3.351,3.6662 v 0.0367 c 0,2.253 1.566,3.6929 3.351,3.6929 1.785,0 3.441,-1.5065 3.441,-3.703 z"
         fill="#2e2d2c"
         id="path9"
         style="fill:#ffffff;fill-opacity:1" />
      <path
         d="m 117.481,39.0188 h 1.619 v 1.5698 h -1.619 z m 0.094,3.6662 h 1.416 v 9.5289 h -1.416 z"
         fill="#2e2d2c"
         id="path10"
         style="fill:#ffffff;fill-opacity:1" />
      <path
         d="m 123.538,47.4812 v -0.0367 c -0.005,-1.3189 0.513,-2.5856 1.44,-3.5216 0.926,-0.9361 2.186,-1.4646 3.502,-1.4695 1.315,-0.0049 2.578,0.5144 3.512,1.4435 0.934,0.9292 1.461,2.1921 1.466,3.5109 v 0.0367 c 0.006,0.6583 -0.119,1.3112 -0.367,1.9205 -0.249,0.6094 -0.616,1.163 -1.08,1.6285 -0.464,0.4655 -1.016,0.8335 -1.624,1.0825 -0.608,0.2491 -1.259,0.3741 -1.916,0.3679 -0.651,0.0081 -1.298,-0.1149 -1.901,-0.3616 -0.603,-0.2467 -1.151,-0.6123 -1.611,-1.0749 -0.46,-0.4627 -0.823,-1.0132 -1.067,-1.6188 -0.244,-0.6057 -0.365,-1.2543 -0.354,-1.9074 z m 8.467,0 v -0.0367 c 0,-2.0464 -1.529,-3.7262 -3.534,-3.7262 -2.061,0 -3.477,1.6664 -3.477,3.6895 v 0.0367 c 0,2.0498 1.509,3.7096 3.514,3.7096 2.051,-0.0067 3.497,-1.6532 3.497,-3.6729 z"
         fill="#2e2d2c"
         id="path11"
         style="fill:#ffffff;fill-opacity:1" />
      <path
         d="m 114.103,9.03561 h 10.868 c 2.659,0 4.78,0.73658 6.12,2.07979 0.528,0.5198 0.943,1.1434 1.22,1.8316 0.276,0.6883 0.407,1.4263 0.386,2.1679 v 0.07 c 0,2.6463 -1.406,4.1195 -3.079,5.0594 2.71,1.0399 4.382,2.6164 4.382,5.766 v 0.07 c 0,4.2895 -3.477,6.4359 -8.763,6.4359 h -11.134 z m 9.764,9.48889 c 2.274,0 3.714,-0.7366 3.714,-2.4797 v -0.07 c 0,-1.5398 -1.204,-2.4131 -3.378,-2.4131 h -5.083 v 4.9628 z m 1.37,9.4556 c 2.274,0 3.657,-0.8066 3.657,-2.5464 v -0.07 c 0,-1.5731 -1.17,-2.5464 -3.813,-2.5464 h -5.951 v 5.1628 z"
         fill="#2e2d2c"
         id="path12"
         style="fill:#ffffff;fill-opacity:1" />
    </g>
  </g>
</svg>
